<?xml version="1.0" standalone="no"?><!DOCTYPE svg PUBLIC "-//W3C//DTD SVG 1.1//EN" "http://www.w3.org/Graphics/SVG/1.1/DTD/svg11.dtd"><svg t="1539337664260" class="icon" style="" viewBox="0 0 1025 1024" version="1.1" xmlns="http://www.w3.org/2000/svg" p-id="2752" xmlns:xlink="http://www.w3.org/1999/xlink" width="64.0625" height="64"><defs><style type="text/css"></style></defs><path d="M844.843886 588.960914c-19.280457 0-34.976914 15.681829-34.976914 35.0208l0 330.005943L233.998629 953.987657 233.998629 623.967086c0-19.324343-15.681829-35.0208-35.0208-35.0208s-35.006171 15.681829-35.006171 35.0208l0 365.012114c0 19.324343 15.6672 35.0208 35.006171 35.0208l645.851429 0c19.3536 0 35.050057-15.681829 35.050057-35.0208L879.879314 623.967086C879.879314 604.642743 864.197486 588.960914 844.843886 588.960914L844.843886 588.960914z" p-id="2753"></path><path d="M1012.911543 451.642514 545.265371 14.1312c-13.458286-12.565943-34.347886-12.5952-47.806171-0.043886L28.086857 451.627886c-14.145829 13.180343-14.935771 35.328-1.7408 49.4592 6.890057 7.402057 16.237714 11.146971 25.614629 11.146971 8.543086 0 17.115429-3.115886 23.8592-9.406171L521.289143 87.595886l443.772343 415.173486c14.1312 13.194971 36.264229 12.478171 49.488457-1.653029C1027.759543 486.999771 1027.028114 464.852114 1012.911543 451.642514L1012.911543 451.642514z" p-id="2754"></path></svg>